<svg width="24" height="27" viewBox="0 0 24 27" fill="none" xmlns="http://www.w3.org/2000/svg">
<path fill-rule="evenodd" clip-rule="evenodd" d="M7.11754 4.05879C3.73891 4.05879 0.999987 6.79772 0.999987 10.1764V19.3527C0.999987 22.7313 3.73891 25.4702 7.11754 25.4702H16.2939C19.6725 25.4702 22.4114 22.7313 22.4114 19.3527L22.4114 10.1764C22.4114 6.79772 19.6725 4.05879 16.2939 4.05879M7.11743 4.05878L16.2938 4.05878L7.11743 4.05878ZM7.11779 4.05879V5.58818V4.05879ZM7.11779 4.05878V1V4.05878ZM16.2936 4.05879V5.58818V4.05879ZM16.2936 4.05878V1V4.05878Z" fill="#F2BC79"/>
<path d="M7.11754 5.05879C7.66983 5.05879 8.11754 4.61108 8.11754 4.05879C8.11754 3.50651 7.66983 3.05879 7.11754 3.05879V5.05879ZM22.4114 19.3527H21.4114H22.4114ZM16.2939 3.05879C15.7416 3.05879 15.2939 3.50651 15.2939 4.05879C15.2939 4.61108 15.7416 5.05879 16.2939 5.05879V3.05879ZM7.11743 3.05878C6.56514 3.05878 6.11743 3.50649 6.11743 4.05878C6.11743 4.61106 6.56514 5.05878 7.11743 5.05878V3.05878ZM16.2938 5.05878C16.846 5.05878 17.2938 4.61106 17.2938 4.05878C17.2938 3.50649 16.846 3.05878 16.2938 3.05878V5.05878ZM8.11779 4.05879C8.11779 3.50651 7.67008 3.05879 7.11779 3.05879C6.56551 3.05879 6.11779 3.50651 6.11779 4.05879H8.11779ZM6.11779 5.58818C6.11779 6.14047 6.56551 6.58818 7.11779 6.58818C7.67008 6.58818 8.11779 6.14047 8.11779 5.58818H6.11779ZM6.11779 4.05878C6.11779 4.61106 6.56551 5.05878 7.11779 5.05878C7.67008 5.05878 8.11779 4.61106 8.11779 4.05878H6.11779ZM8.11779 1C8.11779 0.447715 7.67008 0 7.11779 0C6.56551 0 6.11779 0.447715 6.11779 1H8.11779ZM17.2936 4.05879C17.2936 3.50651 16.8459 3.05879 16.2936 3.05879C15.7413 3.05879 15.2936 3.50651 15.2936 4.05879H17.2936ZM15.2936 5.58818C15.2936 6.14047 15.7413 6.58818 16.2936 6.58818C16.8459 6.58818 17.2936 6.14047 17.2936 5.58818H15.2936ZM15.2936 4.05878C15.2936 4.61106 15.7413 5.05878 16.2936 5.05878C16.8459 5.05878 17.2936 4.61106 17.2936 4.05878H15.2936ZM17.2936 1C17.2936 0.447715 16.8459 0 16.2936 0C15.7413 0 15.2936 0.447715 15.2936 1L17.2936 1ZM7.11754 3.05879C3.18663 3.05879 -1.33514e-05 6.24543 -1.33514e-05 10.1764H1.99999C1.99999 7.35 4.29119 5.05879 7.11754 5.05879V3.05879ZM-1.33514e-05 10.1764V19.3527H1.99999V10.1764H-1.33514e-05ZM-1.33514e-05 19.3527C-1.33514e-05 23.2836 3.18663 26.4702 7.11754 26.4702V24.4702C4.29119 24.4702 1.99999 22.179 1.99999 19.3527H-1.33514e-05ZM7.11754 26.4702H16.2939V24.4702H7.11754V26.4702ZM16.2939 26.4702C20.2248 26.4702 23.4114 23.2836 23.4114 19.3527H21.4114C21.4114 22.179 19.1202 24.4702 16.2939 24.4702V26.4702ZM23.4114 19.3527V10.1764H21.4114V19.3527H23.4114ZM23.4114 10.1764C23.4114 6.24543 20.2248 3.05879 16.2939 3.05879V5.05879C19.1202 5.05879 21.4114 7.35 21.4114 10.1764H23.4114ZM7.11743 5.05878L16.2938 5.05878V3.05878L7.11743 3.05878V5.05878ZM6.11779 4.05879V5.58818H8.11779V4.05879H6.11779ZM8.11779 4.05878V1H6.11779V4.05878H8.11779ZM15.2936 4.05879V5.58818H17.2936V4.05879H15.2936ZM17.2936 4.05878V1L15.2936 1V4.05878H17.2936Z" fill="#322D29"/>
<path d="M5.5882 14.7645L8.64697 19.3527L17.8233 11.7057" stroke="#322D29" stroke-width="2" stroke-linecap="round" stroke-linejoin="round"/>
</svg>
