<svg width="33" height="30" viewBox="0 0 33 30" fill="none" xmlns="http://www.w3.org/2000/svg">
<path fill-rule="evenodd" clip-rule="evenodd" d="M19.4238 3.281C19.4227 4.5394 18.4018 5.55874 17.1435 5.558C15.8851 5.55726 14.8654 4.53673 14.8658 3.27833C14.8662 2.01994 15.8864 1 17.1448 1C17.7495 1.00027 18.3293 1.24073 18.7567 1.6685C19.1841 2.09627 19.424 2.67631 19.4238 3.281Z" stroke="black" stroke-width="1.5" stroke-linecap="round" stroke-linejoin="round"/>
<path fill-rule="evenodd" clip-rule="evenodd" d="M19.4968 8.91895H14.7968C13.1547 8.97053 11.8503 10.3166 11.8503 11.9594C11.8503 13.6023 13.1547 14.9484 14.7968 14.9999H19.4968C21.1388 14.9484 22.4432 13.6023 22.4432 11.9594C22.4432 10.3166 21.1388 8.97053 19.4968 8.91895V8.91895Z" stroke="black" stroke-width="1.5" stroke-linecap="round" stroke-linejoin="round"/>
<path fill-rule="evenodd" clip-rule="evenodd" d="M25.1878 5.02427C25.1872 5.98678 24.4066 6.76664 23.4441 6.76627C22.4816 6.76591 21.7016 5.98544 21.7018 5.02294C21.702 4.06044 22.4823 3.28027 23.4448 3.28027C23.9072 3.28027 24.3507 3.46405 24.6776 3.79114C25.0045 4.11823 25.188 4.56183 25.1878 5.02427V5.02427Z" stroke="black" stroke-width="1.5" stroke-linecap="round" stroke-linejoin="round"/>
<path fill-rule="evenodd" clip-rule="evenodd" d="M8.8338 5.02425C8.8338 5.98688 9.61417 6.76725 10.5768 6.76725C11.5394 6.76725 12.3198 5.98688 12.3198 5.02425C12.3198 4.06162 11.5394 3.28125 10.5768 3.28125C9.61417 3.28125 8.8338 4.06162 8.8338 5.02425V5.02425Z" stroke="black" stroke-width="1.5" stroke-linecap="round" stroke-linejoin="round"/>
<path d="M23.9368 8.83887C23.5226 8.83887 23.1868 9.17465 23.1868 9.58887C23.1868 10.0031 23.5226 10.3389 23.9368 10.3389V8.83887ZM25.2438 9.58887L25.2593 8.83903C25.2541 8.83892 25.249 8.83887 25.2438 8.83887V9.58887ZM25.2438 14.2399V14.9899C25.249 14.9899 25.2541 14.9898 25.2593 14.9897L25.2438 14.2399ZM23.9368 13.4899C23.5226 13.4899 23.1868 13.8257 23.1868 14.2399C23.1868 14.6541 23.5226 14.9899 23.9368 14.9899V13.4899ZM10.0848 10.3389C10.499 10.3389 10.8348 10.0031 10.8348 9.58887C10.8348 9.17465 10.499 8.83887 10.0848 8.83887V10.3389ZM8.77777 9.58887V8.83887C8.77259 8.83887 8.76741 8.83892 8.76222 8.83903L8.77777 9.58887ZM8.77777 14.2399L8.76222 14.9897C8.76741 14.9898 8.77259 14.9899 8.77777 14.9899V14.2399ZM10.0848 14.9899C10.499 14.9899 10.8348 14.6541 10.8348 14.2399C10.8348 13.8257 10.499 13.4899 10.0848 13.4899V14.9899ZM23.9368 10.3389H25.2438V8.83887H23.9368V10.3389ZM25.2282 10.3387C26.0857 10.3565 26.7715 11.0567 26.7715 11.9144H28.2715C28.2715 10.2404 26.9329 8.87374 25.2593 8.83903L25.2282 10.3387ZM26.7715 11.9144C26.7715 12.772 26.0857 13.4722 25.2282 13.49L25.2593 14.9897C26.9329 14.955 28.2715 13.5883 28.2715 11.9144H26.7715ZM25.2438 13.4899H23.9368V14.9899H25.2438V13.4899ZM10.0848 8.83887H8.77777V10.3389H10.0848V8.83887ZM8.76222 8.83903C7.08861 8.87374 5.75 10.2404 5.75 11.9144H7.25C7.25 11.0567 7.93584 10.3565 8.79332 10.3387L8.76222 8.83903ZM5.75 11.9144C5.75 13.5883 7.08861 14.955 8.76222 14.9897L8.79332 13.49C7.93584 13.4722 7.25 12.772 7.25 11.9144H5.75ZM8.77777 14.9899H10.0848V13.4899H8.77777V14.9899Z" fill="black"/>
<path d="M13.6208 20.68H10.1808V23.23H13.6208V20.68ZM7.70078 27.07V26.17H11.3508V24.14H9.10078V19.77H14.6908V24.14H12.4408V26.17H16.1008V27.07H7.70078ZM19.36 28.39V24.89H24.56V28.39H19.36ZM23.48 25.8H20.44V27.48H23.48V25.8ZM23.48 19.28H24.56V24.46H23.48V19.28ZM18.32 21.74C18.32 21.9333 18.3533 22.11 18.42 22.27C18.4867 22.4233 18.5767 22.5567 18.69 22.67C18.81 22.7767 18.9467 22.8633 19.1 22.93C19.26 22.99 19.43 23.02 19.61 23.02C19.9633 23.02 20.2667 22.9033 20.52 22.67C20.7733 22.43 20.9 22.12 20.9 21.74C20.9 21.3667 20.7733 21.06 20.52 20.82C20.2667 20.58 19.9633 20.46 19.61 20.46C19.2433 20.46 18.9367 20.58 18.69 20.82C18.4433 21.06 18.32 21.3667 18.32 21.74ZM17.23 21.74C17.23 21.42 17.29 21.1233 17.41 20.85C17.5367 20.5767 17.7067 20.34 17.92 20.14C18.1333 19.94 18.3833 19.7833 18.67 19.67C18.9567 19.5567 19.27 19.5 19.61 19.5C19.9367 19.5 20.2433 19.5567 20.53 19.67C20.8233 19.7833 21.0767 19.94 21.29 20.14C21.5033 20.34 21.6733 20.5767 21.8 20.85C21.9267 21.1233 21.99 21.42 21.99 21.74C21.99 22.0667 21.9267 22.3667 21.8 22.64C21.6733 22.9133 21.5033 23.15 21.29 23.35C21.0767 23.55 20.8233 23.7067 20.53 23.82C20.2433 23.9267 19.9367 23.98 19.61 23.98C19.27 23.98 18.9567 23.9267 18.67 23.82C18.3833 23.7067 18.1333 23.55 17.92 23.35C17.7067 23.15 17.5367 22.9133 17.41 22.64C17.29 22.3667 17.23 22.0667 17.23 21.74Z" fill="black"/>
</svg>
