<svg width="33" height="30" viewBox="0 0 33 30" fill="none" xmlns="http://www.w3.org/2000/svg">
<path d="M8.79078 20.4V19.46H11.2008V20.4H8.79078ZM11.9608 22.02H10.5208V22.25C10.5208 22.63 10.5741 22.98 10.6808 23.3C10.7874 23.62 10.9241 23.9133 11.0908 24.18C11.2641 24.46 11.4541 24.7033 11.6608 24.91C11.8741 25.11 12.0874 25.28 12.3008 25.42L11.6008 26.14C11.4408 26.02 11.2808 25.8867 11.1208 25.74C10.9674 25.5933 10.8208 25.4367 10.6808 25.27C10.5408 25.0967 10.4108 24.92 10.2908 24.74C10.1774 24.5533 10.0808 24.3633 10.0008 24.17C9.92078 24.37 9.82078 24.57 9.70078 24.77C9.58078 24.9633 9.44745 25.1533 9.30078 25.34C9.16078 25.5267 9.01078 25.7033 8.85078 25.87C8.69078 26.03 8.53078 26.1733 8.37078 26.3L7.65078 25.61C7.85745 25.47 8.06745 25.2867 8.28078 25.06C8.49411 24.8333 8.69078 24.57 8.87078 24.27C9.04411 23.9833 9.18745 23.6733 9.30078 23.34C9.41411 23.0067 9.47078 22.66 9.47078 22.3V22.02H8.01078V21.1H11.9608V22.02ZM12.5708 19.43H13.6108V22.04H14.5408V19.28H15.5808V28.03H14.5408V22.95H13.6108V27.71H12.5708V19.43ZM23.2 26.61C23.2 26.47 23.1633 26.34 23.09 26.22C23.0233 26.1 22.93 26 22.81 25.92C22.69 25.8333 22.5467 25.7667 22.38 25.72C22.22 25.6667 22.0433 25.64 21.85 25.64C21.6567 25.64 21.4767 25.6667 21.31 25.72C21.15 25.7667 21.01 25.8333 20.89 25.92C20.77 26 20.6733 26.1 20.6 26.22C20.5333 26.34 20.5 26.47 20.5 26.61C20.5 26.75 20.5333 26.88 20.6 27C20.6733 27.12 20.77 27.2233 20.89 27.31C21.01 27.3967 21.15 27.4633 21.31 27.51C21.4767 27.5567 21.6567 27.58 21.85 27.58C22.0367 27.58 22.2133 27.5567 22.38 27.51C22.5467 27.4633 22.69 27.3967 22.81 27.31C22.93 27.2233 23.0233 27.12 23.09 27C23.1633 26.88 23.2 26.75 23.2 26.61ZM23.48 19.28H24.56V24.56H23.48V19.28ZM17.56 19.7H21.86V20.62H18.64V21.46H21.71V22.36H18.64V23.25C18.92 23.25 19.23 23.2467 19.57 23.24C19.91 23.2267 20.26 23.21 20.62 23.19C20.98 23.1633 21.33 23.13 21.67 23.09C22.0167 23.05 22.35 23 22.67 22.94L22.78 23.83C22.4067 23.8967 22.0133 23.9533 21.6 24C21.1867 24.0467 20.75 24.0867 20.29 24.12C19.3767 24.18 18.4667 24.2 17.56 24.18V19.7ZM24.29 26.61C24.29 27.13 24.07 27.57 23.63 27.93C23.2033 28.2967 22.61 28.48 21.85 28.48C21.0833 28.48 20.4867 28.2967 20.06 27.93C19.6267 27.57 19.41 27.13 19.41 26.61C19.41 26.09 19.6267 25.65 20.06 25.29C20.4867 24.9233 21.0833 24.74 21.85 24.74C22.61 24.74 23.2033 24.9233 23.63 25.29C24.07 25.65 24.29 26.09 24.29 26.61Z" fill="black"/>
<path fill-rule="evenodd" clip-rule="evenodd" d="M10 11.2606C10.0149 13.2065 11.603 14.7728 13.549 14.7606H14.03L15.452 16.2606C15.5963 16.4094 15.7947 16.4934 16.002 16.4934C16.2093 16.4934 16.4077 16.4094 16.552 16.2606L17.974 14.7606H18.455C20.3994 14.7706 21.9851 13.205 22 11.2606V7.00057C21.9851 5.05461 20.397 3.48838 18.451 3.50057H13.551C11.6042 3.48727 10.0149 5.05382 10 7.00057V11.2606Z" stroke="black" stroke-width="1.5" stroke-linecap="round" stroke-linejoin="round"/>
<path d="M11.75 3.5006C11.75 3.91481 12.0858 4.2506 12.5 4.2506C12.9142 4.2506 13.25 3.91481 13.25 3.5006H11.75ZM20.949 1.0006V1.75073L20.9629 1.75047L20.949 1.0006ZM23.4332 1.97613L22.9128 2.51618L22.9128 2.51618L23.4332 1.97613ZM24.5 4.4226H25.2501L25.2499 4.40875L24.5 4.4226ZM22 11.2506C21.5858 11.2506 21.25 11.5864 21.25 12.0006C21.25 12.4148 21.5858 12.7506 22 12.7506V11.2506ZM13 7.2506C12.5858 7.2506 12.25 7.58639 12.25 8.0006C12.25 8.41481 12.5858 8.7506 13 8.7506V7.2506ZM18.765 8.7506C19.1792 8.7506 19.515 8.41481 19.515 8.0006C19.515 7.58639 19.1792 7.2506 18.765 7.2506V8.7506ZM13.721 9.3586C13.3068 9.3586 12.971 9.69439 12.971 10.1086C12.971 10.5228 13.3068 10.8586 13.721 10.8586V9.3586ZM18.044 10.8586C18.4582 10.8586 18.794 10.5228 18.794 10.1086C18.794 9.69439 18.4582 9.3586 18.044 9.3586V10.8586ZM13.25 3.5006C13.25 2.81137 13.5157 2.43293 13.9279 2.18347C14.3982 1.89877 15.1233 1.7506 16.049 1.7506V0.250599C15.0147 0.250599 13.9653 0.407424 13.1511 0.900233C12.2788 1.42827 11.75 2.29983 11.75 3.5006H13.25ZM16.049 1.7506H20.949V0.250599H16.049V1.7506ZM20.9629 1.75047C21.6887 1.73702 22.3901 2.01246 22.9128 2.51618L23.9537 1.43609C23.1445 0.656299 22.0587 0.229911 20.9351 0.250728L20.9629 1.75047ZM22.9128 2.51618C23.4355 3.01991 23.7367 3.71065 23.7501 4.43645L25.2499 4.40875C25.2291 3.28518 24.7629 2.21587 23.9537 1.43609L22.9128 2.51618ZM23.75 4.4226V8.5786H25.25V4.4226H23.75ZM23.75 8.5786C23.75 9.48644 23.6243 10.1709 23.3585 10.6099C23.1354 10.9783 22.7701 11.2506 22 11.2506V12.7506C23.2299 12.7506 24.1146 12.2569 24.6415 11.3868C25.1257 10.5873 25.25 9.56076 25.25 8.5786H23.75ZM13 8.7506H18.765V7.2506H13V8.7506ZM13.721 10.8586H18.044V9.3586H13.721V10.8586Z" fill="black"/>
</svg>
