<svg width="34" height="34" viewBox="0 0 34 34" fill="none" xmlns="http://www.w3.org/2000/svg">
<path 
  d="M11.9008 25.09C11.6474 25.4567 11.2541 25.7967 10.7208 26.11C10.4541 26.2633 10.1708 26.4 9.87078 26.52C9.57745 26.64 9.26411 26.7367 8.93078 26.81L8.39078 25.95C8.75078 25.87 9.09745 25.7667 9.43078 25.64C9.77078 25.5133 10.0808 25.3633 10.3608 25.19C10.6408 25.01 10.8674 24.81 11.0408 24.59C11.2141 24.3633 11.3008 24.13 11.3008 23.89V23.35H12.5008V23.89C12.5008 24.13 12.5841 24.3633 12.7508 24.59C12.9241 24.81 13.1508 25.01 13.4308 25.19C13.7108 25.3633 14.0174 25.5133 14.3508 25.64C14.6908 25.7667 15.0441 25.87 15.4108 25.95L14.8708 26.81C14.2174 26.6633 13.6141 26.4267 13.0608 26.1C12.5274 25.78 12.1408 25.4433 11.9008 25.09ZM9.11078 32.49V30.1H13.6108V29.5H9.10078V28.61H11.3608V27.92H7.70078V27.02H16.1008V27.92H12.4508V28.61H14.6908V30.96H10.1808V31.59H14.9108V32.49H9.11078ZM21.77 28.56C22.0767 28.56 22.3733 28.6067 22.66 28.7C22.9533 28.7933 23.2133 28.9267 23.44 29.1C23.6667 29.2733 23.8467 29.49 23.98 29.75C24.12 30.0033 24.19 30.29 24.19 30.61C24.19 30.93 24.12 31.2167 23.98 31.47C23.8467 31.73 23.6667 31.9467 23.44 32.12C23.2133 32.2933 22.9533 32.4267 22.66 32.52C22.3733 32.6133 22.0767 32.66 21.77 32.66C21.4633 32.66 21.1633 32.6133 20.87 32.52C20.5833 32.4267 20.3267 32.2933 20.1 32.12C19.8733 31.9467 19.69 31.73 19.55 31.47C19.4167 31.2167 19.35 30.93 19.35 30.61C19.35 30.29 19.4167 30.0033 19.55 29.75C19.69 29.49 19.8733 29.2733 20.1 29.1C20.3267 28.9267 20.5833 28.7933 20.87 28.7C21.1633 28.6067 21.4633 28.56 21.77 28.56ZM21.87 28.26C21.3833 28.06 20.95 27.8067 20.57 27.5C20.1967 27.1933 19.92 26.8833 19.74 26.57C19.5533 26.9233 19.27 27.27 18.89 27.61C18.51 27.9433 18.0733 28.23 17.58 28.47L16.89 27.7C17.19 27.5467 17.4767 27.38 17.75 27.2C18.0233 27.0133 18.2633 26.8067 18.47 26.58C18.6767 26.3467 18.84 26.09 18.96 25.81C19.0867 25.53 19.15 25.2167 19.15 24.87V24.67H17.39V23.74H22.07V24.67H20.31V24.85C20.31 25.17 20.3667 25.4633 20.48 25.73C20.6 25.99 20.76 26.2267 20.96 26.44C21.1667 26.6533 21.4033 26.8467 21.67 27.02C21.9433 27.1933 22.2333 27.35 22.54 27.49L21.87 28.26ZM25.7 26.35H24.29V28.46H23.21V23.28H24.29V25.43H25.7V26.35ZM21.77 29.49C21.59 29.49 21.42 29.52 21.26 29.58C21.1 29.6333 20.96 29.71 20.84 29.81C20.72 29.91 20.6233 30.03 20.55 30.17C20.4833 30.3033 20.45 30.45 20.45 30.61C20.45 30.7833 20.4833 30.9367 20.55 31.07C20.6233 31.21 20.72 31.3267 20.84 31.42C20.96 31.52 21.1 31.5967 21.26 31.65C21.42 31.7033 21.59 31.73 21.77 31.73C21.95 31.73 22.12 31.7033 22.28 31.65C22.44 31.5967 22.58 31.52 22.7 31.42C22.82 31.3267 22.9133 31.21 22.98 31.07C23.0533 30.9367 23.09 30.7833 23.09 30.61C23.09 30.45 23.0533 30.3033 22.98 30.17C22.9133 30.03 22.82 29.91 22.7 29.81C22.58 29.71 22.44 29.6333 22.28 29.58C22.12 29.52 21.95 29.49 21.77 29.49Z" 
  fill="black"/>
<path 
  fill-rule="evenodd" 
  clip-rule="evenodd" 
  d="M8.75019 5L8.00019 9.994C7.97744 12.5023 9.9919 14.5544 12.5002 14.578C15.0085 14.5544 17.0229 12.5023 17.0002 9.994L16.2502 5H8.75019Z" 
  stroke="black" 
  stroke-width="1.5" 
  stroke-linecap="round" 
  stroke-linejoin="round"/>
<path 
  d="M12.5002 18.2501C12.086 18.2501 11.7502 18.5859 11.7502 19.0001C11.7502 19.4143 12.086 19.7501 12.5002 19.7501V18.2501ZM16.0002 19.7501C16.4144 19.7501 16.7502 19.4143 16.7502 19.0001C16.7502 18.5859 16.4144 18.2501 16.0002 18.2501V19.7501ZM11.7502 19.0001C11.7502 19.4143 12.086 19.7501 12.5002 19.7501C12.9144 19.7501 13.2502 19.4143 13.2502 19.0001H11.7502ZM13.2502 14.5791C13.2502 14.1649 12.9144 13.8291 12.5002 13.8291C12.086 13.8291 11.7502 14.1649 11.7502 14.5791H13.2502ZM12.5002 19.7501C12.9144 19.7501 13.2502 19.4143 13.2502 19.0001C13.2502 18.5859 12.9144 18.2501 12.5002 18.2501V19.7501ZM9.00018 18.2501C8.58597 18.2501 8.25018 18.5859 8.25018 19.0001C8.25018 19.4143 8.58597 19.7501 9.00018 19.7501V18.2501ZM12.5002 19.7501H16.0002V18.2501H12.5002V19.7501ZM13.2502 19.0001V14.5791H11.7502V19.0001H13.2502ZM12.5002 18.2501H9.00018V19.7501H12.5002V18.2501Z" 
  fill="black"/>
<path fill-rule="evenodd" clip-rule="evenodd" d="M17.7502 5L17.0002 9.994C16.9774 12.5023 18.9919 14.5544 21.5002 14.578C24.0085 14.5544 26.0229 12.5023 26.0002 9.994L25.2502 5H17.7502Z" stroke="black" stroke-width="1.5" stroke-linecap="round" stroke-linejoin="round"/>
<path d="M21.5002 18.2501C21.086 18.2501 20.7502 18.5859 20.7502 19.0001C20.7502 19.4143 21.086 19.7501 21.5002 19.7501V18.2501ZM25.0002 19.7501C25.4144 19.7501 25.7502 19.4143 25.7502 19.0001C25.7502 18.5859 25.4144 18.2501 25.0002 18.2501V19.7501ZM20.7502 19.0001C20.7502 19.4143 21.086 19.7501 21.5002 19.7501C21.9144 19.7501 22.2502 19.4143 22.2502 19.0001H20.7502ZM22.2502 14.5791C22.2502 14.1649 21.9144 13.8291 21.5002 13.8291C21.086 13.8291 20.7502 14.1649 20.7502 14.5791H22.2502ZM21.5002 19.7501C21.9144 19.7501 22.2502 19.4143 22.2502 19.0001C22.2502 18.5859 21.9144 18.2501 21.5002 18.2501V19.7501ZM18.0002 18.2501C17.586 18.2501 17.2502 18.5859 17.2502 19.0001C17.2502 19.4143 17.586 19.7501 18.0002 19.7501V18.2501ZM21.5002 19.7501H25.0002V18.2501H21.5002V19.7501ZM22.2502 19.0001V14.5791H20.7502V19.0001H22.2502ZM21.5002 18.2501H18.0002V19.7501H21.5002V18.2501Z" fill="black"/>
</svg>
