<svg width="33" height="34" viewBox="0 0 33 34" fill="none" xmlns="http://www.w3.org/2000/svg">
<path d="M15.0208 23.28V26.11H16.5008V27.03H15.0208V32.03H13.9408V23.28H15.0208ZM8.20078 29.4V23.89H12.5108V29.4H8.20078ZM11.4408 24.8H9.28078V28.49H11.4408V24.8ZM23.48 23.28H24.56V32.03H23.48V23.28ZM18.32 26.38C18.32 26.6133 18.3533 26.8233 18.42 27.01C18.4933 27.19 18.59 27.3467 18.71 27.48C18.8367 27.6133 18.9833 27.7167 19.15 27.79C19.3167 27.8567 19.5 27.89 19.7 27.89C19.8867 27.89 20.0633 27.8567 20.23 27.79C20.4033 27.7167 20.55 27.6133 20.67 27.48C20.7967 27.3467 20.8967 27.19 20.97 27.01C21.0433 26.8233 21.08 26.6133 21.08 26.38C21.08 26.1533 21.0433 25.9467 20.97 25.76C20.8967 25.5733 20.7967 25.4133 20.67 25.28C20.55 25.1467 20.4033 25.0467 20.23 24.98C20.0633 24.9067 19.8867 24.87 19.7 24.87C19.5 24.87 19.3167 24.9067 19.15 24.98C18.9833 25.0467 18.8367 25.1467 18.71 25.28C18.59 25.4133 18.4933 25.5733 18.42 25.76C18.3533 25.9467 18.32 26.1533 18.32 26.38ZM17.23 26.38C17.23 26.02 17.2933 25.69 17.42 25.39C17.5467 25.09 17.7233 24.83 17.95 24.61C18.1767 24.39 18.44 24.22 18.74 24.1C19.04 23.9733 19.36 23.91 19.7 23.91C20.04 23.91 20.3567 23.9733 20.65 24.1C20.95 24.22 21.2133 24.39 21.44 24.61C21.6667 24.83 21.8433 25.09 21.97 25.39C22.1033 25.69 22.17 26.02 22.17 26.38C22.17 26.74 22.1033 27.0733 21.97 27.38C21.8433 27.68 21.6667 27.94 21.44 28.16C21.2133 28.38 20.95 28.55 20.65 28.67C20.3567 28.79 20.04 28.85 19.7 28.85C19.36 28.85 19.04 28.79 18.74 28.67C18.44 28.55 18.1767 28.38 17.95 28.16C17.7233 27.94 17.5467 27.68 17.42 27.38C17.2933 27.0733 17.23 26.74 17.23 26.38Z" fill="black"/>
<path fill-rule="evenodd" clip-rule="evenodd" d="M20 8C20 9.65685 18.6569 11 17 11C15.3431 11 14 9.65685 14 8C14 6.34315 15.3431 5 17 5C17.7956 5 18.5587 5.31607 19.1213 5.87868C19.6839 6.44129 20 7.20435 20 8Z" stroke="black" stroke-width="1.5" stroke-linecap="round" stroke-linejoin="round"/>
<path fill-rule="evenodd" clip-rule="evenodd" d="M20.5 14H13.5C12.1193 14 11 15.1193 11 16.5C11 17.8807 12.1193 19 13.5 19H20.5C21.8807 19 23 17.8807 23 16.5C23 15.1193 21.8807 14 20.5 14V14Z" stroke="black" stroke-width="1.5" stroke-linecap="round" stroke-linejoin="round"/>
</svg>
