<svg width="27" height="27" viewBox="0 0 27 27" fill="none" xmlns="http://www.w3.org/2000/svg">
<path d="M9.01463 13.2806L9.6874 13.6121C9.7382 13.509 9.76463 13.3956 9.76463 13.2806H9.01463ZM7.875 15.5936L7.20223 15.2621C7.14023 15.388 7.11477 15.5287 7.12872 15.6682L7.875 15.5936ZM9.5175 17.6962L9.83091 17.0149C9.81115 17.0058 9.79101 16.9976 9.77054 16.9902L9.5175 17.6962ZM13.5743 18.5963L13.5701 19.3463L13.5784 19.3462L13.5743 18.5963ZM17.631 17.6962L17.3279 17.0101L17.3176 17.0149L17.631 17.6962ZM18.8381 16.7805L19.4172 17.2572C19.4473 17.2206 19.4739 17.1812 19.4966 17.1396L18.8381 16.7805ZM18.7031 14.4371L18.0197 14.746C18.0392 14.7893 18.0629 14.8306 18.0903 14.8695L18.7031 14.4371ZM18.0518 11.997L18.7982 11.9241C18.7974 11.9159 18.7964 11.9076 18.7954 11.8993L18.0518 11.997ZM13.5742 21.375L13.5641 22.1249C13.5709 22.125 13.5776 22.125 13.5844 22.1249L13.5742 21.375ZM13.5731 6.72787C11.7601 6.72787 10.3905 7.49158 9.50113 8.74393C8.63547 9.96292 8.26463 11.5842 8.26463 13.2806H9.76463C9.76463 11.7742 10.098 10.4941 10.7241 9.61242C11.3265 8.76411 12.2362 8.22787 13.5731 8.22787V6.72787ZM8.34185 12.9491L7.20223 15.2621L8.54777 15.9251L9.6874 13.6121L8.34185 12.9491ZM7.12872 15.6682C7.2534 16.9154 8.08461 17.9794 9.26446 18.4023L9.77054 16.9902C9.13565 16.7627 8.68837 16.1901 8.62128 15.519L7.12872 15.6682ZM9.20409 18.3776C10.5739 19.0077 12.0624 19.3379 13.5701 19.3462L13.5784 17.8463C12.2843 17.8391 11.0066 17.5557 9.83091 17.0149L9.20409 18.3776ZM13.5784 19.3462C15.0861 19.3379 16.5746 19.0077 17.9444 18.3776L17.3176 17.0149C16.1419 17.5557 14.8642 17.8391 13.5701 17.8463L13.5784 19.3462ZM17.934 18.3823C18.5094 18.1281 19.0174 17.7428 19.4172 17.2572L18.2591 16.3038C18.0081 16.6087 17.6892 16.8506 17.328 17.0102L17.934 18.3823ZM19.4966 17.1396C20.0386 16.1456 19.9686 14.9299 19.316 14.0048L18.0903 14.8695C18.4134 15.3275 18.448 15.9293 18.1797 16.4214L19.4966 17.1396ZM19.3866 14.1283C19.0713 13.4307 18.8726 12.6861 18.7982 11.9241L17.3053 12.0699C17.3956 12.9949 17.6369 13.899 18.0197 14.746L19.3866 14.1283ZM18.7954 11.8993C18.6122 10.5052 18.1283 9.21435 17.2564 8.26128C16.3674 7.28962 15.1271 6.72787 13.5731 6.72787V8.22787C14.7337 8.22787 15.5629 8.63251 16.1497 9.27381C16.7534 9.93371 17.1515 10.9024 17.3081 12.0947L18.7954 11.8993ZM14.3231 7.47787V5.625H12.8231V7.47787H14.3231ZM10.291 21.0619C11.2498 21.7385 12.3908 22.1091 13.5641 22.1249L13.5844 20.6251C12.7138 20.6133 11.8673 20.3384 11.156 19.8364L10.291 21.0619ZM13.5844 22.1249C14.7577 22.1091 15.8987 21.7385 16.8575 21.0619L15.9925 19.8364C15.2812 20.3384 14.4347 20.6133 13.5641 20.6251L13.5844 22.1249Z" fill="black"/>
</svg>
