<svg width="30" height="30" viewBox="0 0 30 30" fill="none" xmlns="http://www.w3.org/2000/svg">
<rect width="30" height="30" rx="5" fill="#F2BC79"/>
<path d="M19.521 10.5468C19.4892 9.82189 19.4458 9.09749 19.3908 8.37393C19.3677 8.06762 19.2356 7.77973 19.0184 7.56253C18.8012 7.34532 18.5133 7.2132 18.207 7.19014C14.9341 6.93662 11.6465 6.93662 8.37362 7.19014C8.06731 7.2132 7.77942 7.34532 7.56222 7.56253C7.34501 7.77973 7.21289 8.06762 7.18983 8.37393C6.93672 11.6345 6.93672 14.9099 7.18983 18.1705C7.21289 18.4768 7.34501 18.7647 7.56222 18.9819C7.77942 19.1991 8.06731 19.3312 8.37362 19.3542C9.13651 19.4108 9.88625 19.4555 10.6294 19.4871" stroke="#3E3E3E" stroke-width="1.5"/>
<path d="M10.7807 21.6257C10.8037 21.932 10.9359 22.2199 11.1531 22.4371C11.3703 22.6543 11.6582 22.7865 11.9645 22.8095C15.2378 23.0634 18.5258 23.0634 21.7991 22.8095C22.1055 22.7865 22.3933 22.6543 22.6106 22.4371C22.8278 22.2199 22.9599 21.932 22.9829 21.6257C23.236 18.3656 23.236 15.0907 22.9829 11.8305C22.9599 11.5242 22.8278 11.2363 22.6106 11.0191C22.3933 10.8019 22.1055 10.6698 21.7991 10.6467C18.5258 10.3931 15.2378 10.3931 11.9645 10.6467C11.6582 10.6698 11.3703 10.8019 11.1531 11.0191C10.9359 11.2363 10.8037 11.5242 10.7807 11.8305C10.5277 15.0907 10.5277 18.3656 10.7807 21.6257Z" stroke="#3E3E3E" stroke-width="1.5"/>
<path d="M14.1097 16.729H19.6551" stroke="#3E3E3E" stroke-width="1.5" stroke-linecap="round"/>
<path d="M16.8811 13.9548V19.5002" stroke="#3E3E3E" stroke-width="1.5" stroke-linecap="round"/>
</svg>
