<svg xmlns="http://www.w3.org/2000/svg" width="68" height="43" viewBox="0 0 68 43" fill="none">
  <path fill-rule="evenodd" clip-rule="evenodd" d="M68 0H0V43H68V0ZM50.4062 7.11605C53.3843 6.6721 56.3736 6.2265 59.1609 6.84005C60.7917 7.19917 62.5922 8.27451 62.6388 9.99451C62.6794 11.4971 61.3983 12.5639 60.2302 13.5366C60.0988 13.646 59.9689 13.7541 59.8425 13.8616C58.3878 15.0979 57.2062 16.6201 56.0238 18.1432C54.9408 19.5384 53.8571 20.9344 52.5623 22.1124C48.3359 25.9577 42.4713 27.0083 36.8961 28.0071C36.6943 28.0433 36.493 28.0793 36.2921 28.1155C30.5394 29.1499 24.3785 30.6583 20.5967 35.248C20.2559 35.6616 19.9339 36.1005 19.6118 36.5396C18.7194 37.7561 17.826 38.9739 16.5285 39.6603C14.772 40.5901 12.5563 40.3022 10.8818 39.2237C9.20706 38.1451 8.03386 36.3727 7.32523 34.4721C6.50673 32.2765 6.3768 29.8884 6.37024 27.5365C6.34441 18.1049 10.2542 11.1828 16.8647 7.24689C23.4752 3.31059 32.9641 3.92739 40.05 6.85317C43.2367 8.18479 46.8134 7.65162 50.4062 7.11605Z" fill="#F0E5DC"/>
  <path d="M26.1829 34.2138C26.0821 32.8936 25.3118 31.6806 24.2605 31.0459L19 35.8502C19.7639 36.6343 20.6149 37.3477 21.5989 37.728C22.583 38.1087 23.7195 38.1224 24.6292 37.5594C25.6741 36.9118 26.2838 35.534 26.1829 34.2138Z" fill="#9FC433"/>
  <path d="M22.1102 35.8714C21.9149 34.791 21.9903 33.8101 22.25 32.8823L19 35.8507C19.7639 36.6348 20.6149 37.3481 21.5989 37.7285C22.1711 37.9499 22.7942 38.0419 23.395 37.9738C22.7829 37.4886 22.3187 36.7937 22.1102 35.8714Z" fill="#87AB00"/>
  <path d="M17.1205 7.6765L17.1205 7.67651C10.6803 11.511 6.84483 18.2577 6.87024 27.5351C6.87677 29.8788 7.00831 32.1906 7.79372 34.2974C8.47798 36.1326 9.59602 37.8009 11.1526 38.8033L11.1526 38.8033C12.7083 39.8054 14.73 40.0466 16.2946 39.2184L16.2947 39.2184C17.0887 38.7983 17.7336 38.1468 18.3531 37.3756C18.6445 37.0129 18.9236 36.6324 19.2103 36.2416L19.2642 36.1682C19.5672 35.7553 19.8795 35.3322 20.2108 34.9301L20.2108 34.93C24.1225 30.1827 30.4633 28.6555 36.2036 27.6234M17.1205 7.6765L59.8425 13.8616M17.1205 7.6765C23.5484 3.8489 32.8591 4.42524 39.8583 7.315M17.1205 7.6765L39.8583 7.315M36.2036 27.6234L36.2921 28.1155M36.2036 27.6234L36.2921 28.1155M36.2036 27.6234C36.3868 27.5904 36.5702 27.5575 36.7537 27.5246C42.3746 26.5168 48.1085 25.4886 52.2258 21.7426L52.5623 22.1124L52.2259 21.7426C53.4878 20.5945 54.5473 19.2297 55.6378 17.8251C55.6845 17.7649 55.7313 17.7047 55.7781 17.6445C56.908 16.1899 58.0802 14.7031 59.5187 13.4806M36.2921 28.1155C30.5394 29.1499 24.3785 30.6583 20.5967 35.248L36.2921 28.1155ZM59.5187 13.4806L59.8425 13.8616M59.5187 13.4806C59.5187 13.4806 59.5187 13.4806 59.5187 13.4806L59.8425 13.8616M59.5187 13.4806C59.6543 13.3654 59.7905 13.2519 59.9257 13.1393C60.4405 12.7103 60.9418 12.2925 61.3509 11.8263C61.8573 11.2492 62.1568 10.6669 62.139 10.0081M59.8425 13.8616C59.9689 13.7541 60.0988 13.646 60.2302 13.5366C61.3983 12.5639 62.6794 11.4971 62.6388 9.99451M62.139 10.0081L62.6388 9.99451M62.139 10.0081C62.139 10.008 62.139 10.008 62.139 10.008L62.6388 9.99451M62.139 10.0081C62.1208 9.3374 61.7642 8.76424 61.1813 8.29713C60.5945 7.82695 59.8121 7.49545 59.0534 7.32836L59.1609 6.84005M62.6388 9.99451C62.5922 8.27451 60.7917 7.19917 59.1609 6.84005M59.1609 6.84005L59.0533 7.32836M59.1609 6.84005C56.3736 6.2265 53.3843 6.6721 50.4062 7.11605C46.8134 7.65162 43.2367 8.18479 40.05 6.85317C32.9641 3.92739 23.4752 3.31059 16.8647 7.24689L59.0533 7.32836M59.0533 7.32836C56.3616 6.73585 53.4664 7.16652 50.4694 7.61233C50.1662 7.65743 49.8619 7.70269 49.5568 7.74705C46.288 8.22228 42.916 8.59224 39.8583 7.315M59.0533 7.32836L39.8583 7.315" stroke="#D9513D"/>
  <path d="M39.9739 26.9738C39.9423 27.0422 39.5941 26.9966 39.1504 26.5956C38.7139 26.2023 38.2482 25.4316 38.1171 24.3936C37.971 23.3611 38.168 22.1726 38.3608 20.95C38.5559 19.7084 38.7876 18.3467 39.0494 16.9204C39.3196 15.5062 39.5772 14.159 39.8135 12.9238C40.029 11.7134 40.1324 10.6314 40.0996 9.72422C40.0502 7.90075 39.5016 6.84916 39.6693 6.75719C39.7399 6.71538 39.982 6.92327 40.2642 7.40745C40.5487 7.88783 40.8471 8.65515 40.9994 9.64099C41.1571 10.6268 41.1394 11.8194 40.979 13.0922C40.8151 14.368 40.5634 15.7145 40.3074 17.1446C40.0456 18.5709 39.7784 19.9266 39.5197 21.1568C39.2556 22.3988 38.9992 23.4542 39.0185 24.3271C39.022 25.194 39.2815 25.8694 39.5344 26.2832C39.7881 26.7017 40.0225 26.8909 39.9739 26.9738Z" fill="#D7B862"/>
  <path d="M19.2801 14.2572C19.2801 14.7913 18.9952 15.224 18.644 15.224C18.2927 15.224 18.0078 14.7909 18.0078 14.2572C18.0078 13.7231 18.2927 13.29 18.644 13.29C18.9952 13.29 19.2801 13.7231 19.2801 14.2572Z" fill="#2E2E68"/>
  <path d="M32.5067 14.2572C32.5067 14.7913 32.2217 15.224 31.8705 15.224C31.5193 15.224 31.2344 14.7909 31.2344 14.2572C31.2344 13.7231 31.5193 13.29 31.8705 13.29C32.2221 13.29 32.5067 13.7231 32.5067 14.2572Z" fill="#2E2E68"/>
  <path d="M28.8238 15.6026C27.932 15.1417 26.706 16.1065 26.0224 16.4902C25.3389 16.874 24.4972 16.6326 23.863 16.2218C23.6344 16.0739 23.4273 15.8877 23.1817 15.7724C22.3976 15.4034 21.347 15.9967 21.2259 16.8772C21.1403 17.5016 21.4595 18.1132 21.8586 18.5904C22.7318 19.6347 24.0646 20.2695 25.4005 20.2189C26.7364 20.1684 28.0415 19.4132 28.7324 18.2325C29.1588 17.5043 29.7155 16.0635 28.8238 15.6026Z" fill="white"/>
  <path d="M26.5733 18.1985C25.6117 18.4502 24.8002 19.1987 24.3984 20.1301C24.7273 20.2001 25.0635 20.2311 25.4001 20.2183C26.6762 20.1702 27.9177 19.4743 28.629 18.3838C27.9824 18.1034 27.2545 18.0199 26.5733 18.1985Z" fill="#D9513D"/>
  <path d="M26.404 17.8999C27.0332 17.5694 27.3362 16.8162 27.4735 16.1015C27.5024 15.952 27.5224 15.7997 27.5371 15.647C26.9646 15.8733 26.4074 16.2737 26.0223 16.4897C25.3383 16.8734 24.4971 16.632 23.8629 16.2212C23.8016 16.1815 23.743 16.1373 23.6836 16.094C23.8081 16.6102 24.0306 17.0977 24.393 17.4704C24.9112 18.0037 25.7516 18.2427 26.404 17.8999Z" fill="white"/>
  <path d="M28.8238 15.6025C28.4344 15.4013 27.981 15.472 27.5372 15.6474C27.5226 15.8001 27.5025 15.9525 27.4736 16.102C27.3363 16.8166 27.0333 17.5698 26.4041 17.9003C25.7522 18.2431 24.9113 18.0041 24.3931 17.4712C24.0307 17.0986 23.8083 16.611 23.6837 16.0948C23.5218 15.9775 23.3614 15.857 23.1817 15.7723C22.3976 15.4032 21.347 15.9966 21.2259 16.8771C21.1403 17.5014 21.4595 18.1131 21.8586 18.5903C22.5117 19.3714 23.4223 19.923 24.3985 20.1306C24.8003 19.1992 25.6118 18.4507 26.5734 18.199C27.2542 18.0204 27.9821 18.1039 28.6294 18.3843C28.663 18.333 28.7015 18.2857 28.7324 18.2328C29.1588 17.5042 29.7155 16.0634 28.8238 15.6025Z" fill="#9F000D"/>
</svg>